{
    "asset" : {
        "generator" : "Khronos glTF Blender I/O v1.5.17",
        "version" : "2.0"
    },
    "scene" : 0,
    "scenes" : [
        {
            "name" : "Scene",
            "nodes" : [
                0,
                1,
                2,
                3,
                4,
                5,
                6,
                7
            ]
        }
    ],
    "nodes" : [
        {
            "name" : "Light",
            "rotation" : [
                0.16907575726509094,
                0.7558803558349609,
                -0.27217137813568115,
                0.570947527885437
            ],
            "scale" : [
                0.22400176525115967,
                0.22400176525115967,
                0.22400182485580444
            ],
            "translation" : [
                1.8884224891662598,
                3.972013473510742,
                4.2335309982299805
            ]
        },
        {
            "name" : "Camera",
            "rotation" : [
                0.48353609442710876,
                0.33687159419059753,
                -0.2087036371231079,
                0.7804826498031616
            ],
            "translation" : [
                28.5206241607666,
                23.8712100982666,
                27.901119232177734
            ]
        },
        {
            "mesh" : 0,
            "name" : "Cube.008",
            "rotation" : [
                0.12391456961631775,
                0.027406835928559303,
                -0.003423810238018632,
                0.9919084310531616
            ],
            "scale" : [
                0.19593343138694763,
                0.2240079641342163,
                0.15896938741207123
            ],
            "translation" : [
                0.9564359784126282,
                2.99513840675354,
                4.504405975341797
            ]
        },
        {
            "mesh" : 1,
            "name" : "Cube",
            "rotation" : [
                0.14762364327907562,
                0,
                0,
                0.9890437126159668
            ],
            "scale" : [
                0.11419777572154999,
                0.22400176525115967,
                0.039258670061826706
            ],
            "translation" : [
                -0.7524704933166504,
                2.891852378845215,
                3.7528815269470215
            ]
        },
        {
            "mesh" : 2,
            "name" : "Cube.004",
            "rotation" : [
                0,
                0.07104124128818512,
                0,
                0.9974734783172607
            ],
            "scale" : [
                1.2565902471542358,
                0.09447112679481506,
                0.44992583990097046
            ],
            "translation" : [
                0.9795355796813965,
                2.7506778240203857,
                2.017131805419922
            ]
        },
        {
            "mesh" : 3,
            "name" : "Sphere",
            "scale" : [
                0.33945509791374207,
                0.3307481110095978,
                0.549328625202179
            ],
            "translation" : [
                4.186732292175293,
                2.6495378017425537,
                4.904417037963867
            ]
        },
        {
            "mesh" : 4,
            "name" : "Cylinder",
            "scale" : [
                0.5689597129821777,
                0.776258111000061,
                0.5689597129821777
            ],
            "translation" : [
                5.135918617248535,
                3.4436230659484863,
                3.176982879638672
            ]
        },
        {
            "mesh" : 5,
            "name" : "Cube.001",
            "rotation" : [
                0,
                0.13202022016048431,
                0,
                0.9912471175193787
            ],
            "scale" : [
                1.0872516632080078,
                2.5410633087158203,
                2.3776347637176514
            ],
            "translation" : [
                -3.596416473388672,
                5.1976823806762695,
                4.458754062652588
            ]
        }
    ],
    "materials" : [
        {
            "doubleSided" : true,
            "name" : "Material",
            "pbrMetallicRoughness" : {
                "baseColorFactor" : [
                    0.005604693666100502,
                    0.005604693666100502,
                    0.005604693666100502,
                    1
                ],
                "metallicFactor" : 0.3897058963775635
            }
        },
        {
            "doubleSided" : true,
            "name" : "Material.024",
            "pbrMetallicRoughness" : {
                "baseColorFactor" : [
                    0.002458432922139764,
                    0,
                    0.8000000715255737,
                    1
                ],
                "metallicFactor" : 0,
                "roughnessFactor" : 0.5
            }
        }
    ],
    "meshes" : [
        {
            "name" : "Cube.008",
            "primitives" : [
                {
                    "attributes" : {
                        "POSITION" : 0,
                        "NORMAL" : 1,
                        "TEXCOORD_0" : 2
                    },
                    "indices" : 3,
                    "material" : 0
                }
            ]
        },
        {
            "name" : "Cube.040",
            "primitives" : [
                {
                    "attributes" : {
                        "POSITION" : 4,
                        "NORMAL" : 5,
                        "TEXCOORD_0" : 6
                    },
                    "indices" : 7,
                    "material" : 0
                }
            ]
        },
        {
            "name" : "Cube.044",
            "primitives" : [
                {
                    "attributes" : {
                        "POSITION" : 8,
                        "NORMAL" : 9,
                        "TEXCOORD_0" : 10
                    },
                    "indices" : 11,
                    "material" : 0
                },
                {
                    "attributes" : {
                        "POSITION" : 12,
                        "NORMAL" : 13,
                        "TEXCOORD_0" : 14
                    },
                    "indices" : 15,
                    "material" : 1
                }
            ]
        },
        {
            "name" : "Sphere",
            "primitives" : [
                {
                    "attributes" : {
                        "POSITION" : 16,
                        "NORMAL" : 17,
                        "TEXCOORD_0" : 18
                    },
                    "indices" : 19,
                    "material" : 0
                }
            ]
        },
        {
            "name" : "Cylinder",
            "primitives" : [
                {
                    "attributes" : {
                        "POSITION" : 20,
                        "NORMAL" : 21,
                        "TEXCOORD_0" : 22
                    },
                    "indices" : 23
                }
            ]
        },
        {
            "name" : "Cube.046",
            "primitives" : [
                {
                    "attributes" : {
                        "POSITION" : 24,
                        "NORMAL" : 25,
                        "TEXCOORD_0" : 26
                    },
                    "indices" : 27,
                    "material" : 0
                }
            ]
        }
    ],
    "accessors" : [
        {
            "bufferView" : 0,
            "componentType" : 5126,
            "count" : 6240,
            "max" : [
                11.145885467529297,
                0.8166733980178833,
                5.791851043701172
            ],
            "min" : [
                -11.160070419311523,
                -0.49312761425971985,
                -5.652777671813965
            ],
            "type" : "VEC3"
        },
        {
            "bufferView" : 1,
            "componentType" : 5126,
            "count" : 6240,
            "type" : "VEC3"
        },
        {
            "bufferView" : 2,
            "componentType" : 5126,
            "count" : 6240,
            "type" : "VEC2"
        },
        {
            "bufferView" : 3,
            "componentType" : 5123,
            "count" : 8784,
            "type" : "SCALAR"
        },
        {
            "bufferView" : 4,
            "componentType" : 5126,
            "count" : 24,
            "max" : [
                1,
                1,
                1
            ],
            "min" : [
                -1,
                -1,
                -1
            ],
            "type" : "VEC3"
        },
        {
            "bufferView" : 5,
            "componentType" : 5126,
            "count" : 24,
            "type" : "VEC3"
        },
        {
            "bufferView" : 6,
            "componentType" : 5126,
            "count" : 24,
            "type" : "VEC2"
        },
        {
            "bufferView" : 7,
            "componentType" : 5123,
            "count" : 36,
            "type" : "SCALAR"
        },
        {
            "bufferView" : 8,
            "componentType" : 5126,
            "count" : 162,
            "max" : [
                2.2003331184387207,
                52.417484283447266,
                1
            ],
            "min" : [
                -2.2003331184387207,
                -1,
                -1
            ],
            "type" : "VEC3"
        },
        {
            "bufferView" : 9,
            "componentType" : 5126,
            "count" : 162,
            "type" : "VEC3"
        },
        {
            "bufferView" : 10,
            "componentType" : 5126,
            "count" : 162,
            "type" : "VEC2"
        },
        {
            "bufferView" : 11,
            "componentType" : 5123,
            "count" : 258,
            "type" : "SCALAR"
        },
        {
            "bufferView" : 12,
            "componentType" : 5126,
            "count" : 4,
            "max" : [
                2.0345046520233154,
                50.9932861328125,
                0.253564715385437
            ],
            "min" : [
                -2.0345046520233154,
                16.0471248626709,
                0.25356462597846985
            ],
            "type" : "VEC3"
        },
        {
            "bufferView" : 13,
            "componentType" : 5126,
            "count" : 4,
            "type" : "VEC3"
        },
        {
            "bufferView" : 14,
            "componentType" : 5126,
            "count" : 4,
            "type" : "VEC2"
        },
        {
            "bufferView" : 15,
            "componentType" : 5123,
            "count" : 6,
            "type" : "SCALAR"
        },
        {
            "bufferView" : 16,
            "componentType" : 5126,
            "count" : 368,
            "max" : [
                1.000000238418579,
                1,
                1.0000003576278687
            ],
            "min" : [
                -0.9999998211860657,
                -0.013498067855834961,
                -1
            ],
            "type" : "VEC3"
        },
        {
            "bufferView" : 17,
            "componentType" : 5126,
            "count" : 368,
            "type" : "VEC3"
        },
        {
            "bufferView" : 18,
            "componentType" : 5126,
            "count" : 368,
            "type" : "VEC2"
        },
        {
            "bufferView" : 19,
            "componentType" : 5123,
            "count" : 1722,
            "type" : "SCALAR"
        },
        {
            "bufferView" : 20,
            "componentType" : 5126,
            "count" : 226,
            "max" : [
                1,
                1,
                1
            ],
            "min" : [
                -1,
                -1,
                -1
            ],
            "type" : "VEC3"
        },
        {
            "bufferView" : 21,
            "componentType" : 5126,
            "count" : 226,
            "type" : "VEC3"
        },
        {
            "bufferView" : 22,
            "componentType" : 5126,
            "count" : 226,
            "type" : "VEC2"
        },
        {
            "bufferView" : 23,
            "componentType" : 5123,
            "count" : 948,
            "type" : "SCALAR"
        },
        {
            "bufferView" : 24,
            "componentType" : 5126,
            "count" : 96,
            "max" : [
                1,
                1,
                1
            ],
            "min" : [
                -1,
                -1,
                -1
            ],
            "type" : "VEC3"
        },
        {
            "bufferView" : 25,
            "componentType" : 5126,
            "count" : 96,
            "type" : "VEC3"
        },
        {
            "bufferView" : 26,
            "componentType" : 5126,
            "count" : 96,
            "type" : "VEC2"
        },
        {
            "bufferView" : 27,
            "componentType" : 5123,
            "count" : 132,
            "type" : "SCALAR"
        }
    ],
    "bufferViews" : [
        {
            "buffer" : 0,
            "byteLength" : 74880,
            "byteOffset" : 0
        },
        {
            "buffer" : 0,
            "byteLength" : 74880,
            "byteOffset" : 74880
        },
        {
            "buffer" : 0,
            "byteLength" : 49920,
            "byteOffset" : 149760
        },
        {
            "buffer" : 0,
            "byteLength" : 17568,
            "byteOffset" : 199680
        },
        {
            "buffer" : 0,
            "byteLength" : 288,
            "byteOffset" : 217248
        },
        {
            "buffer" : 0,
            "byteLength" : 288,
            "byteOffset" : 217536
        },
        {
            "buffer" : 0,
            "byteLength" : 192,
            "byteOffset" : 217824
        },
        {
            "buffer" : 0,
            "byteLength" : 72,
            "byteOffset" : 218016
        },
        {
            "buffer" : 0,
            "byteLength" : 1944,
            "byteOffset" : 218088
        },
        {
            "buffer" : 0,
            "byteLength" : 1944,
            "byteOffset" : 220032
        },
        {
            "buffer" : 0,
            "byteLength" : 1296,
            "byteOffset" : 221976
        },
        {
            "buffer" : 0,
            "byteLength" : 516,
            "byteOffset" : 223272
        },
        {
            "buffer" : 0,
            "byteLength" : 48,
            "byteOffset" : 223788
        },
        {
            "buffer" : 0,
            "byteLength" : 48,
            "byteOffset" : 223836
        },
        {
            "buffer" : 0,
            "byteLength" : 32,
            "byteOffset" : 223884
        },
        {
            "buffer" : 0,
            "byteLength" : 12,
            "byteOffset" : 223916
        },
        {
            "buffer" : 0,
            "byteLength" : 4416,
            "byteOffset" : 223928
        },
        {
            "buffer" : 0,
            "byteLength" : 4416,
            "byteOffset" : 228344
        },
        {
            "buffer" : 0,
            "byteLength" : 2944,
            "byteOffset" : 232760
        },
        {
            "buffer" : 0,
            "byteLength" : 3444,
            "byteOffset" : 235704
        },
        {
            "buffer" : 0,
            "byteLength" : 2712,
            "byteOffset" : 239148
        },
        {
            "buffer" : 0,
            "byteLength" : 2712,
            "byteOffset" : 241860
        },
        {
            "buffer" : 0,
            "byteLength" : 1808,
            "byteOffset" : 244572
        },
        {
            "buffer" : 0,
            "byteLength" : 1896,
            "byteOffset" : 246380
        },
        {
            "buffer" : 0,
            "byteLength" : 1152,
            "byteOffset" : 248276
        },
        {
            "buffer" : 0,
            "byteLength" : 1152,
            "byteOffset" : 249428
        },
        {
            "buffer" : 0,
            "byteLength" : 768,
            "byteOffset" : 250580
        },
        {
            "buffer" : 0,
            "byteLength" : 264,
            "byteOffset" : 251348
        }
    ],
    "buffers" : [
        {
            "byteLength" : 251612,
            "uri" : "data:application/octet-stream;base64,"
        }
    ]
}
