{
    "asset" : {
        "generator" : "Khronos glTF Blender I/O v1.5.17",
        "version" : "2.0"
    },
    "scene" : 0,
    "scenes" : [
        {
            "name" : "Scene",
            "nodes" : [
                0,
                1,
                2,
                3
            ]
        }
    ],
    "nodes" : [
        {
            "name" : "Light",
            "rotation" : [
                -0.0713837593793869,
                0.9388328790664673,
                -0.31235912442207336,
                -0.12621013820171356
            ],
            "scale" : [
                0.3452085256576538,
                0.3452085256576538,
                0.3452085256576538
            ],
            "translation" : [
                -1.6506178379058838,
                4.407268524169922,
                0.43557167053222656
            ]
        },
        {
            "name" : "Camera",
            "rotation" : [
                0.483536034822464,
                0.33687159419059753,
                -0.20870360732078552,
                0.7804827094078064
            ],
            "translation" : [
                15.637473106384277,
                12.987236976623535,
                15.131221771240234
            ]
        },
        {
            "mesh" : 0,
            "name" : "Cube.012",
            "rotation" : [
                0,
                0.24295899271965027,
                0,
                0.9700365662574768
            ],
            "scale" : [
                0.02854512445628643,
                0.14042088389396667,
                0.005799776408821344
            ],
            "translation" : [
                1.302706241607666,
                1.0577878952026367,
                -0.07657766342163086
            ]
        },
        {
            "name" : "BezierCircle",
            "scale" : [
                0.06021983176469803,
                0.06021983176469803,
                0.06021983176469803
            ],
            "translation" : [
                -0.09713827073574066,
                0.017160892486572266,
                1.994764804840088
            ]
        }
    ],
    "materials" : [
        {
            "doubleSided" : true,
            "name" : "Material.005",
            "pbrMetallicRoughness" : {
                "baseColorFactor" : [
                    0.49692320823669434,
                    0.057238608598709106,
                    0.010705873370170593,
                    1
                ],
                "metallicFactor" : 0,
                "roughnessFactor" : 0.5
            }
        },
        {
            "doubleSided" : true,
            "name" : "Material.007",
            "pbrMetallicRoughness" : {
                "baseColorFactor" : [
                    0,
                    0,
                    0,
                    1
                ],
                "metallicFactor" : 0,
                "roughnessFactor" : 0.5
            }
        },
        {
            "doubleSided" : true,
            "name" : "Material.002",
            "pbrMetallicRoughness" : {
                "baseColorFactor" : [
                    0.4292261004447937,
                    0.11630372703075409,
                    0.03481297940015793,
                    1
                ],
                "metallicFactor" : 0,
                "roughnessFactor" : 0.5
            }
        },
        {
            "doubleSided" : true,
            "name" : "Material.001",
            "pbrMetallicRoughness" : {
                "baseColorFactor" : [
                    0.030978132039308548,
                    0.8000000715255737,
                    0.019544072449207306,
                    1
                ],
                "metallicFactor" : 0,
                "roughnessFactor" : 0.5
            }
        },
        {
            "doubleSided" : true,
            "name" : "Material.006",
            "pbrMetallicRoughness" : {
                "baseColorFactor" : [
                    0.8000000715255737,
                    0.002747548744082451,
                    0.00599578907713294,
                    1
                ],
                "metallicFactor" : 0,
                "roughnessFactor" : 0.5
            }
        },
        {
            "doubleSided" : true,
            "name" : "Material.008",
            "pbrMetallicRoughness" : {
                "baseColorFactor" : [
                    0.8000000715255737,
                    0.39669230580329895,
                    0.022107820957899094,
                    1
                ],
                "metallicFactor" : 0,
                "roughnessFactor" : 0.5
            }
        },
        {
            "doubleSided" : true,
            "name" : "Material.003",
            "pbrMetallicRoughness" : {
                "baseColorFactor" : [
                    0.007548158522695303,
                    0.3167959451675415,
                    0.8000000715255737,
                    1
                ],
                "metallicFactor" : 0,
                "roughnessFactor" : 0.5
            }
        },
        {
            "doubleSided" : true,
            "name" : "Material.009",
            "pbrMetallicRoughness" : {
                "baseColorFactor" : [
                    0.8000000715255737,
                    0.39669230580329895,
                    0.022107820957899094,
                    1
                ],
                "metallicFactor" : 0,
                "roughnessFactor" : 0.5
            }
        },
        {
            "doubleSided" : true,
            "name" : "Material.012",
            "pbrMetallicRoughness" : {
                "baseColorFactor" : [
                    0.00539568904787302,
                    0.8000000715255737,
                    0.009131516329944134,
                    1
                ],
                "metallicFactor" : 0,
                "roughnessFactor" : 0.5
            }
        },
        {
            "doubleSided" : true,
            "name" : "Material.011",
            "pbrMetallicRoughness" : {
                "baseColorFactor" : [
                    0.8000000715255737,
                    0.39669230580329895,
                    0.022107820957899094,
                    1
                ],
                "metallicFactor" : 0,
                "roughnessFactor" : 0.5
            }
        }
    ],
    "meshes" : [
        {
            "name" : "Cube.015",
            "primitives" : [
                {
                    "attributes" : {
                        "POSITION" : 0,
                        "NORMAL" : 1,
                        "TEXCOORD_0" : 2
                    },
                    "indices" : 3,
                    "material" : 0
                },
                {
                    "attributes" : {
                        "POSITION" : 4,
                        "NORMAL" : 5,
                        "TEXCOORD_0" : 6
                    },
                    "indices" : 7,
                    "material" : 1
                },
                {
                    "attributes" : {
                        "POSITION" : 8,
                        "NORMAL" : 9,
                        "TEXCOORD_0" : 10
                    },
                    "indices" : 11,
                    "material" : 2
                },
                {
                    "attributes" : {
                        "POSITION" : 12,
                        "NORMAL" : 13,
                        "TEXCOORD_0" : 14
                    },
                    "indices" : 15,
                    "material" : 3
                },
                {
                    "attributes" : {
                        "POSITION" : 16,
                        "NORMAL" : 17,
                        "TEXCOORD_0" : 18
                    },
                    "indices" : 19,
                    "material" : 4
                },
                {
                    "attributes" : {
                        "POSITION" : 20,
                        "NORMAL" : 21,
                        "TEXCOORD_0" : 22
                    },
                    "indices" : 23,
                    "material" : 5
                },
                {
                    "attributes" : {
                        "POSITION" : 24,
                        "NORMAL" : 25,
                        "TEXCOORD_0" : 26
                    },
                    "indices" : 27,
                    "material" : 6
                },
                {
                    "attributes" : {
                        "POSITION" : 28,
                        "NORMAL" : 29,
                        "TEXCOORD_0" : 30
                    },
                    "indices" : 31,
                    "material" : 7
                },
                {
                    "attributes" : {
                        "POSITION" : 32,
                        "NORMAL" : 33,
                        "TEXCOORD_0" : 34
                    },
                    "indices" : 35,
                    "material" : 8
                },
                {
                    "attributes" : {
                        "POSITION" : 36,
                        "NORMAL" : 37,
                        "TEXCOORD_0" : 38
                    },
                    "indices" : 39,
                    "material" : 9
                }
            ]
        }
    ],
    "accessors" : [
        {
            "bufferView" : 0,
            "componentType" : 5126,
            "count" : 270,
            "max" : [
                8.45810604095459,
                7.490682601928711,
                2.935211658477783
            ],
            "min" : [
                -54.81633377075195,
                -1.2321908473968506,
                -54.98329544067383
            ],
            "type" : "VEC3"
        },
        {
            "bufferView" : 1,
            "componentType" : 5126,
            "count" : 270,
            "type" : "VEC3"
        },
        {
            "bufferView" : 2,
            "componentType" : 5126,
            "count" : 270,
            "type" : "VEC2"
        },
        {
            "bufferView" : 3,
            "componentType" : 5123,
            "count" : 378,
            "type" : "SCALAR"
        },
        {
            "bufferView" : 4,
            "componentType" : 5126,
            "count" : 569,
            "max" : [
                32.84504699707031,
                -0.1152040958404541,
                238.23336791992188
            ],
            "min" : [
                -95.50656127929688,
                -7.40135383605957,
                -393.4828796386719
            ],
            "type" : "VEC3"
        },
        {
            "bufferView" : 5,
            "componentType" : 5126,
            "count" : 569,
            "type" : "VEC3"
        },
        {
            "bufferView" : 6,
            "componentType" : 5126,
            "count" : 569,
            "type" : "VEC2"
        },
        {
            "bufferView" : 7,
            "componentType" : 5123,
            "count" : 1491,
            "type" : "SCALAR"
        },
        {
            "bufferView" : 8,
            "componentType" : 5126,
            "count" : 328,
            "max" : [
                14.091217041015625,
                6.078986167907715,
                -92.3132095336914
            ],
            "min" : [
                -18.735763549804688,
                -1.1126317977905273,
                -253.87985229492188
            ],
            "type" : "VEC3"
        },
        {
            "bufferView" : 9,
            "componentType" : 5126,
            "count" : 328,
            "type" : "VEC3"
        },
        {
            "bufferView" : 10,
            "componentType" : 5126,
            "count" : 328,
            "type" : "VEC2"
        },
        {
            "bufferView" : 11,
            "componentType" : 5123,
            "count" : 492,
            "type" : "SCALAR"
        },
        {
            "bufferView" : 12,
            "componentType" : 5126,
            "count" : 334,
            "max" : [
                25.49632453918457,
                10.520275115966797,
                -71.75398254394531
            ],
            "min" : [
                -19.829978942871094,
                3.8117990493774414,
                -295.4569091796875
            ],
            "type" : "VEC3"
        },
        {
            "bufferView" : 13,
            "componentType" : 5126,
            "count" : 334,
            "type" : "VEC3"
        },
        {
            "bufferView" : 14,
            "componentType" : 5126,
            "count" : 334,
            "type" : "VEC2"
        },
        {
            "bufferView" : 15,
            "componentType" : 5123,
            "count" : 336,
            "type" : "SCALAR"
        },
        {
            "bufferView" : 16,
            "componentType" : 5126,
            "count" : 123,
            "max" : [
                -44.15789031982422,
                6.614133834838867,
                70.92756652832031
            ],
            "min" : [
                -79.50218200683594,
                -0.9593630433082581,
                -146.50987243652344
            ],
            "type" : "VEC3"
        },
        {
            "bufferView" : 17,
            "componentType" : 5126,
            "count" : 123,
            "type" : "VEC3"
        },
        {
            "bufferView" : 18,
            "componentType" : 5126,
            "count" : 123,
            "type" : "VEC2"
        },
        {
            "bufferView" : 19,
            "componentType" : 5123,
            "count" : 294,
            "type" : "SCALAR"
        },
        {
            "bufferView" : 20,
            "componentType" : 5126,
            "count" : 1482,
            "max" : [
                -9.688535690307617,
                0.0926898717880249,
                123.98822021484375
            ],
            "min" : [
                -77.13518524169922,
                -1.1379486322402954,
                -137.9391632080078
            ],
            "type" : "VEC3"
        },
        {
            "bufferView" : 21,
            "componentType" : 5126,
            "count" : 1482,
            "type" : "VEC3"
        },
        {
            "bufferView" : 22,
            "componentType" : 5126,
            "count" : 1482,
            "type" : "VEC2"
        },
        {
            "bufferView" : 23,
            "componentType" : 5123,
            "count" : 1572,
            "type" : "SCALAR"
        },
        {
            "bufferView" : 24,
            "componentType" : 5126,
            "count" : 72,
            "max" : [
                -49.28251266479492,
                1.5759520530700684,
                69.1856689453125
            ],
            "min" : [
                -78.77079772949219,
                0.3860477805137634,
                -144.76797485351562
            ],
            "type" : "VEC3"
        },
        {
            "bufferView" : 25,
            "componentType" : 5126,
            "count" : 72,
            "type" : "VEC3"
        },
        {
            "bufferView" : 26,
            "componentType" : 5126,
            "count" : 72,
            "type" : "VEC2"
        },
        {
            "bufferView" : 27,
            "componentType" : 5123,
            "count" : 114,
            "type" : "SCALAR"
        },
        {
            "bufferView" : 28,
            "componentType" : 5126,
            "count" : 12,
            "max" : [
                -50.19214630126953,
                1.4381006956100464,
                60.6995735168457
            ],
            "min" : [
                -76.4560317993164,
                0.5238991975784302,
                -135.33041381835938
            ],
            "type" : "VEC3"
        },
        {
            "bufferView" : 29,
            "componentType" : 5126,
            "count" : 12,
            "type" : "VEC3"
        },
        {
            "bufferView" : 30,
            "componentType" : 5126,
            "count" : 12,
            "type" : "VEC2"
        },
        {
            "bufferView" : 31,
            "componentType" : 5123,
            "count" : 18,
            "type" : "SCALAR"
        },
        {
            "bufferView" : 32,
            "componentType" : 5126,
            "count" : 72,
            "max" : [
                -41.118831634521484,
                2.900139331817627,
                74.76858520507812
            ],
            "min" : [
                -86.93447875976562,
                1.7102351188659668,
                -150.3508758544922
            ],
            "type" : "VEC3"
        },
        {
            "bufferView" : 33,
            "componentType" : 5126,
            "count" : 72,
            "type" : "VEC3"
        },
        {
            "bufferView" : 34,
            "componentType" : 5126,
            "count" : 72,
            "type" : "VEC2"
        },
        {
            "bufferView" : 35,
            "componentType" : 5123,
            "count" : 114,
            "type" : "SCALAR"
        },
        {
            "bufferView" : 36,
            "componentType" : 5126,
            "count" : 12,
            "max" : [
                -42.77362060546875,
                2.7622880935668945,
                61.693477630615234
            ],
            "min" : [
                -84.2800521850586,
                1.8480864763259888,
                -142.22821044921875
            ],
            "type" : "VEC3"
        },
        {
            "bufferView" : 37,
            "componentType" : 5126,
            "count" : 12,
            "type" : "VEC3"
        },
        {
            "bufferView" : 38,
            "componentType" : 5126,
            "count" : 12,
            "type" : "VEC2"
        },
        {
            "bufferView" : 39,
            "componentType" : 5123,
            "count" : 18,
            "type" : "SCALAR"
        }
    ],
    "bufferViews" : [
        {
            "buffer" : 0,
            "byteLength" : 3240,
            "byteOffset" : 0
        },
        {
            "buffer" : 0,
            "byteLength" : 3240,
            "byteOffset" : 3240
        },
        {
            "buffer" : 0,
            "byteLength" : 2160,
            "byteOffset" : 6480
        },
        {
            "buffer" : 0,
            "byteLength" : 756,
            "byteOffset" : 8640
        },
        {
            "buffer" : 0,
            "byteLength" : 6828,
            "byteOffset" : 9396
        },
        {
            "buffer" : 0,
            "byteLength" : 6828,
            "byteOffset" : 16224
        },
        {
            "buffer" : 0,
            "byteLength" : 4552,
            "byteOffset" : 23052
        },
        {
            "buffer" : 0,
            "byteLength" : 2982,
            "byteOffset" : 27604
        },
        {
            "buffer" : 0,
            "byteLength" : 3936,
            "byteOffset" : 30588
        },
        {
            "buffer" : 0,
            "byteLength" : 3936,
            "byteOffset" : 34524
        },
        {
            "buffer" : 0,
            "byteLength" : 2624,
            "byteOffset" : 38460
        },
        {
            "buffer" : 0,
            "byteLength" : 984,
            "byteOffset" : 41084
        },
        {
            "buffer" : 0,
            "byteLength" : 4008,
            "byteOffset" : 42068
        },
        {
            "buffer" : 0,
            "byteLength" : 4008,
            "byteOffset" : 46076
        },
        {
            "buffer" : 0,
            "byteLength" : 2672,
            "byteOffset" : 50084
        },
        {
            "buffer" : 0,
            "byteLength" : 672,
            "byteOffset" : 52756
        },
        {
            "buffer" : 0,
            "byteLength" : 1476,
            "byteOffset" : 53428
        },
        {
            "buffer" : 0,
            "byteLength" : 1476,
            "byteOffset" : 54904
        },
        {
            "buffer" : 0,
            "byteLength" : 984,
            "byteOffset" : 56380
        },
        {
            "buffer" : 0,
            "byteLength" : 588,
            "byteOffset" : 57364
        },
        {
            "buffer" : 0,
            "byteLength" : 17784,
            "byteOffset" : 57952
        },
        {
            "buffer" : 0,
            "byteLength" : 17784,
            "byteOffset" : 75736
        },
        {
            "buffer" : 0,
            "byteLength" : 11856,
            "byteOffset" : 93520
        },
        {
            "buffer" : 0,
            "byteLength" : 3144,
            "byteOffset" : 105376
        },
        {
            "buffer" : 0,
            "byteLength" : 864,
            "byteOffset" : 108520
        },
        {
            "buffer" : 0,
            "byteLength" : 864,
            "byteOffset" : 109384
        },
        {
            "buffer" : 0,
            "byteLength" : 576,
            "byteOffset" : 110248
        },
        {
            "buffer" : 0,
            "byteLength" : 228,
            "byteOffset" : 110824
        },
        {
            "buffer" : 0,
            "byteLength" : 144,
            "byteOffset" : 111052
        },
        {
            "buffer" : 0,
            "byteLength" : 144,
            "byteOffset" : 111196
        },
        {
            "buffer" : 0,
            "byteLength" : 96,
            "byteOffset" : 111340
        },
        {
            "buffer" : 0,
            "byteLength" : 36,
            "byteOffset" : 111436
        },
        {
            "buffer" : 0,
            "byteLength" : 864,
            "byteOffset" : 111472
        },
        {
            "buffer" : 0,
            "byteLength" : 864,
            "byteOffset" : 112336
        },
        {
            "buffer" : 0,
            "byteLength" : 576,
            "byteOffset" : 113200
        },
        {
            "buffer" : 0,
            "byteLength" : 228,
            "byteOffset" : 113776
        },
        {
            "buffer" : 0,
            "byteLength" : 144,
            "byteOffset" : 114004
        },
        {
            "buffer" : 0,
            "byteLength" : 144,
            "byteOffset" : 114148
        },
        {
            "buffer" : 0,
            "byteLength" : 96,
            "byteOffset" : 114292
        },
        {
            "buffer" : 0,
            "byteLength" : 36,
            "byteOffset" : 114388
        }
    ],
    "buffers" : [
        {
            "byteLength" : 114424,
            "uri" : "data:application/octet-stream;base64,"
        }
    ]
}
